<mxfile host="app.diagrams.net" modified="2022-09-26T13:54:19.564Z" agent="5.0 (Windows)" etag="yQvKnzE6HQzI2G7_R09y" version="20.3.6" type="github">
  <diagram id="Fh4v0mdyYJnzDNx5GfhB" name="Page-1">
    <mxGraphModel dx="1632" dy="696" grid="1" gridSize="10" guides="1" tooltips="1" connect="1" arrows="1" fold="1" page="1" pageScale="1" pageWidth="850" pageHeight="1100" math="0" shadow="0">
      <root>
        <mxCell id="0" />
        <mxCell id="1" parent="0" />
        <mxCell id="hyZtjgiOcXkNJ2vdgt9V-2" value="Status: Looking for Driver" style="rounded=0;whiteSpace=wrap;html=1;" vertex="1" parent="1">
          <mxGeometry x="130" y="30" width="210" height="40" as="geometry" />
        </mxCell>
        <mxCell id="hyZtjgiOcXkNJ2vdgt9V-15" value="Check offer for this Request" style="rhombus;whiteSpace=wrap;html=1;" vertex="1" parent="1">
          <mxGeometry x="177" y="120" width="144" height="110" as="geometry" />
        </mxCell>
        <mxCell id="hyZtjgiOcXkNJ2vdgt9V-17" value="" style="endArrow=none;html=1;rounded=0;entryX=0.5;entryY=1;entryDx=0;entryDy=0;exitX=0.5;exitY=0;exitDx=0;exitDy=0;" edge="1" parent="1" source="hyZtjgiOcXkNJ2vdgt9V-15">
          <mxGeometry width="50" height="50" relative="1" as="geometry">
            <mxPoint x="244" y="120" as="sourcePoint" />
            <mxPoint x="249" y="70" as="targetPoint" />
          </mxGeometry>
        </mxCell>
        <mxCell id="hyZtjgiOcXkNJ2vdgt9V-18" value="" style="endArrow=classic;html=1;rounded=0;entryX=0;entryY=0.5;entryDx=0;entryDy=0;startArrow=none;" edge="1" parent="1" source="hyZtjgiOcXkNJ2vdgt9V-12" target="hyZtjgiOcXkNJ2vdgt9V-21">
          <mxGeometry width="50" height="50" relative="1" as="geometry">
            <mxPoint x="324" y="175" as="sourcePoint" />
            <mxPoint x="574" y="175" as="targetPoint" />
          </mxGeometry>
        </mxCell>
        <mxCell id="hyZtjgiOcXkNJ2vdgt9V-24" style="edgeStyle=orthogonalEdgeStyle;rounded=0;orthogonalLoop=1;jettySize=auto;html=1;" edge="1" parent="1" source="hyZtjgiOcXkNJ2vdgt9V-21">
          <mxGeometry relative="1" as="geometry">
            <mxPoint x="620" y="260" as="targetPoint" />
          </mxGeometry>
        </mxCell>
        <mxCell id="hyZtjgiOcXkNJ2vdgt9V-21" value="Check Offer(Button)" style="rounded=0;whiteSpace=wrap;html=1;" vertex="1" parent="1">
          <mxGeometry x="560" y="145" width="120" height="60" as="geometry" />
        </mxCell>
        <mxCell id="hyZtjgiOcXkNJ2vdgt9V-22" value="Waiting for offers" style="rounded=0;whiteSpace=wrap;html=1;" vertex="1" parent="1">
          <mxGeometry x="10" y="145" width="120" height="60" as="geometry" />
        </mxCell>
        <mxCell id="hyZtjgiOcXkNJ2vdgt9V-27" value="Show Available Driver List" style="rounded=1;whiteSpace=wrap;html=1;" vertex="1" parent="1">
          <mxGeometry x="550" y="260" width="140" height="60" as="geometry" />
        </mxCell>
        <mxCell id="hyZtjgiOcXkNJ2vdgt9V-28" value="&lt;div&gt;On &lt;br&gt;&lt;/div&gt;&lt;div&gt;Button click&lt;/div&gt;" style="text;html=1;strokeColor=none;fillColor=none;spacing=5;spacingTop=-20;whiteSpace=wrap;overflow=hidden;rounded=0;" vertex="1" parent="1">
          <mxGeometry x="620" y="240" width="90" height="20" as="geometry" />
        </mxCell>
        <mxCell id="hyZtjgiOcXkNJ2vdgt9V-34" value="Status : Active Delivery" style="rounded=0;whiteSpace=wrap;html=1;" vertex="1" parent="1">
          <mxGeometry x="80" y="510" width="250" height="60" as="geometry" />
        </mxCell>
        <mxCell id="hyZtjgiOcXkNJ2vdgt9V-35" value="" style="endArrow=none;html=1;rounded=0;" edge="1" parent="1">
          <mxGeometry width="50" height="50" relative="1" as="geometry">
            <mxPoint x="237" y="610" as="sourcePoint" />
            <mxPoint x="237" y="570" as="targetPoint" />
          </mxGeometry>
        </mxCell>
        <mxCell id="hyZtjgiOcXkNJ2vdgt9V-36" value="" style="endArrow=classic;html=1;rounded=0;" edge="1" parent="1">
          <mxGeometry width="50" height="50" relative="1" as="geometry">
            <mxPoint x="460" y="610" as="sourcePoint" />
            <mxPoint x="460" y="660" as="targetPoint" />
          </mxGeometry>
        </mxCell>
        <mxCell id="hyZtjgiOcXkNJ2vdgt9V-37" value="" style="endArrow=none;html=1;rounded=0;" edge="1" parent="1">
          <mxGeometry width="50" height="50" relative="1" as="geometry">
            <mxPoint x="140" y="610" as="sourcePoint" />
            <mxPoint x="460" y="610" as="targetPoint" />
          </mxGeometry>
        </mxCell>
        <mxCell id="hyZtjgiOcXkNJ2vdgt9V-39" value="" style="endArrow=classic;html=1;rounded=0;" edge="1" parent="1">
          <mxGeometry width="50" height="50" relative="1" as="geometry">
            <mxPoint x="140" y="610" as="sourcePoint" />
            <mxPoint x="140" y="660" as="targetPoint" />
          </mxGeometry>
        </mxCell>
        <mxCell id="hyZtjgiOcXkNJ2vdgt9V-45" value="" style="endArrow=classic;html=1;rounded=0;entryX=1;entryY=0.25;entryDx=0;entryDy=0;" edge="1" parent="1" target="hyZtjgiOcXkNJ2vdgt9V-2">
          <mxGeometry relative="1" as="geometry">
            <mxPoint x="690" y="290" as="sourcePoint" />
            <mxPoint x="850" y="290" as="targetPoint" />
            <Array as="points">
              <mxPoint x="750" y="290" />
              <mxPoint x="750" y="40" />
            </Array>
          </mxGeometry>
        </mxCell>
        <mxCell id="hyZtjgiOcXkNJ2vdgt9V-46" value="If customer Do not Accept any offer from Driver list" style="edgeLabel;resizable=0;html=1;align=center;verticalAlign=middle;" connectable="0" vertex="1" parent="hyZtjgiOcXkNJ2vdgt9V-45">
          <mxGeometry relative="1" as="geometry">
            <mxPoint x="-76" as="offset" />
          </mxGeometry>
        </mxCell>
        <mxCell id="hyZtjgiOcXkNJ2vdgt9V-48" value="" style="endArrow=classic;html=1;rounded=0;exitX=0.5;exitY=1;exitDx=0;exitDy=0;entryX=0.612;entryY=-0.067;entryDx=0;entryDy=0;entryPerimeter=0;" edge="1" parent="1" source="hyZtjgiOcXkNJ2vdgt9V-27" target="hyZtjgiOcXkNJ2vdgt9V-34">
          <mxGeometry relative="1" as="geometry">
            <mxPoint x="500" y="400" as="sourcePoint" />
            <mxPoint x="660" y="400" as="targetPoint" />
            <Array as="points">
              <mxPoint x="620" y="450" />
              <mxPoint x="233" y="450" />
            </Array>
          </mxGeometry>
        </mxCell>
        <mxCell id="hyZtjgiOcXkNJ2vdgt9V-49" value="If customer Accept any offer form Driver list" style="edgeLabel;resizable=0;html=1;align=center;verticalAlign=middle;" connectable="0" vertex="1" parent="hyZtjgiOcXkNJ2vdgt9V-48">
          <mxGeometry relative="1" as="geometry" />
        </mxCell>
        <mxCell id="hyZtjgiOcXkNJ2vdgt9V-53" value="Are you sure, you picked up this delivery?" style="rhombus;whiteSpace=wrap;html=1;" vertex="1" parent="1">
          <mxGeometry x="354" y="826" width="220" height="170" as="geometry" />
        </mxCell>
        <mxCell id="hyZtjgiOcXkNJ2vdgt9V-61" value="" style="endArrow=classic;html=1;rounded=0;exitX=0.5;exitY=1;exitDx=0;exitDy=0;" edge="1" parent="1" source="hyZtjgiOcXkNJ2vdgt9V-97" target="hyZtjgiOcXkNJ2vdgt9V-53">
          <mxGeometry relative="1" as="geometry">
            <mxPoint x="460" y="740" as="sourcePoint" />
            <mxPoint x="450" y="870" as="targetPoint" />
          </mxGeometry>
        </mxCell>
        <mxCell id="hyZtjgiOcXkNJ2vdgt9V-62" value="On I Picked Up click" style="edgeLabel;resizable=0;html=1;align=center;verticalAlign=middle;" connectable="0" vertex="1" parent="hyZtjgiOcXkNJ2vdgt9V-61">
          <mxGeometry relative="1" as="geometry" />
        </mxCell>
        <mxCell id="hyZtjgiOcXkNJ2vdgt9V-63" value="" style="endArrow=classic;html=1;rounded=0;entryX=1;entryY=0.5;entryDx=0;entryDy=0;" edge="1" parent="1">
          <mxGeometry relative="1" as="geometry">
            <mxPoint x="572" y="909.5" as="sourcePoint" />
            <mxPoint x="330" y="546" as="targetPoint" />
            <Array as="points">
              <mxPoint x="710" y="910" />
              <mxPoint x="710" y="546" />
            </Array>
          </mxGeometry>
        </mxCell>
        <mxCell id="hyZtjgiOcXkNJ2vdgt9V-64" value="No" style="edgeLabel;resizable=0;html=1;align=center;verticalAlign=middle;" connectable="0" vertex="1" parent="hyZtjgiOcXkNJ2vdgt9V-63">
          <mxGeometry relative="1" as="geometry">
            <mxPoint x="-67" y="302" as="offset" />
          </mxGeometry>
        </mxCell>
        <mxCell id="hyZtjgiOcXkNJ2vdgt9V-70" value="Status : Picked Up" style="rounded=0;whiteSpace=wrap;html=1;" vertex="1" parent="1">
          <mxGeometry x="80" y="1006" width="300" height="60" as="geometry" />
        </mxCell>
        <mxCell id="hyZtjgiOcXkNJ2vdgt9V-71" value="" style="endArrow=classic;html=1;rounded=0;" edge="1" parent="1">
          <mxGeometry width="50" height="50" relative="1" as="geometry">
            <mxPoint x="466" y="1136" as="sourcePoint" />
            <mxPoint x="466" y="1186" as="targetPoint" />
          </mxGeometry>
        </mxCell>
        <mxCell id="hyZtjgiOcXkNJ2vdgt9V-72" value="" style="endArrow=none;html=1;rounded=0;" edge="1" parent="1">
          <mxGeometry width="50" height="50" relative="1" as="geometry">
            <mxPoint x="146" y="1136" as="sourcePoint" />
            <mxPoint x="466" y="1136" as="targetPoint" />
          </mxGeometry>
        </mxCell>
        <mxCell id="hyZtjgiOcXkNJ2vdgt9V-73" value="" style="endArrow=classic;html=1;rounded=0;" edge="1" parent="1">
          <mxGeometry width="50" height="50" relative="1" as="geometry">
            <mxPoint x="146" y="1136" as="sourcePoint" />
            <mxPoint x="146" y="1186" as="targetPoint" />
          </mxGeometry>
        </mxCell>
        <mxCell id="hyZtjgiOcXkNJ2vdgt9V-76" value="" style="endArrow=none;html=1;rounded=0;" edge="1" parent="1">
          <mxGeometry width="50" height="50" relative="1" as="geometry">
            <mxPoint x="230" y="1135.98" as="sourcePoint" />
            <mxPoint x="230" y="1067" as="targetPoint" />
          </mxGeometry>
        </mxCell>
        <mxCell id="hyZtjgiOcXkNJ2vdgt9V-77" value="" style="endArrow=classic;html=1;rounded=0;entryX=0.5;entryY=0;entryDx=0;entryDy=0;" edge="1" parent="1">
          <mxGeometry relative="1" as="geometry">
            <mxPoint x="353" y="910.5" as="sourcePoint" />
            <mxPoint x="231" y="1006" as="targetPoint" />
            <Array as="points">
              <mxPoint x="231" y="911" />
            </Array>
          </mxGeometry>
        </mxCell>
        <mxCell id="hyZtjgiOcXkNJ2vdgt9V-78" value="Yes" style="edgeLabel;resizable=0;html=1;align=center;verticalAlign=middle;" connectable="0" vertex="1" parent="hyZtjgiOcXkNJ2vdgt9V-77">
          <mxGeometry relative="1" as="geometry">
            <mxPoint x="52" as="offset" />
          </mxGeometry>
        </mxCell>
        <mxCell id="hyZtjgiOcXkNJ2vdgt9V-80" value="When create courier ,customer add Time for pickup courier. that will show here" style="strokeWidth=2;html=1;shape=mxgraph.flowchart.stored_data;whiteSpace=wrap;" vertex="1" parent="1">
          <mxGeometry x="526" y="788" width="180" height="60" as="geometry" />
        </mxCell>
        <mxCell id="hyZtjgiOcXkNJ2vdgt9V-81" value="&lt;div&gt;When create courier ,customer add&lt;/div&gt;&lt;div&gt;&amp;nbsp;Time for Deliver courier. that will&lt;/div&gt;&lt;div&gt;&amp;nbsp;show here&lt;/div&gt;" style="strokeWidth=2;html=1;shape=mxgraph.flowchart.stored_data;whiteSpace=wrap;" vertex="1" parent="1">
          <mxGeometry x="511" y="1361" width="229" height="60" as="geometry" />
        </mxCell>
        <mxCell id="hyZtjgiOcXkNJ2vdgt9V-86" value="" style="endArrow=classic;html=1;rounded=0;entryX=1;entryY=0.5;entryDx=0;entryDy=0;" edge="1" parent="1">
          <mxGeometry relative="1" as="geometry">
            <mxPoint x="640" y="788" as="sourcePoint" />
            <mxPoint x="600" y="742" as="targetPoint" />
            <Array as="points">
              <mxPoint x="640" y="742" />
            </Array>
          </mxGeometry>
        </mxCell>
        <mxCell id="hyZtjgiOcXkNJ2vdgt9V-88" value="Pick up Time" style="text;html=1;strokeColor=none;fillColor=none;spacing=5;spacingTop=-20;whiteSpace=wrap;overflow=hidden;rounded=0;" vertex="1" parent="1">
          <mxGeometry x="611" y="735" width="80" height="10" as="geometry" />
        </mxCell>
        <mxCell id="hyZtjgiOcXkNJ2vdgt9V-89" value="My Request (Customer)" style="swimlane;" vertex="1" parent="1">
          <mxGeometry x="46" y="1189" width="220" height="80" as="geometry">
            <mxRectangle x="130" y="1310" width="140" height="30" as="alternateBounds" />
          </mxGeometry>
        </mxCell>
        <mxCell id="hyZtjgiOcXkNJ2vdgt9V-90" value="&lt;div&gt;Main note : Waiting for delivery&lt;br&gt;&lt;/div&gt;" style="text;html=1;align=center;verticalAlign=middle;resizable=0;points=[];autosize=1;strokeColor=none;fillColor=none;" vertex="1" parent="hyZtjgiOcXkNJ2vdgt9V-89">
          <mxGeometry x="1" y="29" width="190" height="30" as="geometry" />
        </mxCell>
        <mxCell id="hyZtjgiOcXkNJ2vdgt9V-92" value="My Job  (Driver)" style="swimlane;" vertex="1" parent="1">
          <mxGeometry x="330" y="1186" width="270" height="94" as="geometry" />
        </mxCell>
        <mxCell id="hyZtjgiOcXkNJ2vdgt9V-93" value="&lt;div&gt;Main note: I Delivered (Button)&lt;/div&gt;&lt;div&gt;&lt;br&gt;&lt;/div&gt;" style="text;html=1;align=center;verticalAlign=middle;resizable=0;points=[];autosize=1;strokeColor=none;fillColor=none;" vertex="1" parent="hyZtjgiOcXkNJ2vdgt9V-92">
          <mxGeometry x="-5" y="33" width="190" height="40" as="geometry" />
        </mxCell>
        <mxCell id="hyZtjgiOcXkNJ2vdgt9V-94" value="Sub note : Delivery time Start at [time]." style="text;html=1;align=center;verticalAlign=middle;resizable=0;points=[];autosize=1;strokeColor=none;fillColor=none;" vertex="1" parent="hyZtjgiOcXkNJ2vdgt9V-92">
          <mxGeometry x="-5" y="58" width="230" height="30" as="geometry" />
        </mxCell>
        <mxCell id="hyZtjgiOcXkNJ2vdgt9V-95" value="My Request (Customer)" style="swimlane;" vertex="1" parent="1">
          <mxGeometry x="40" y="660" width="220" height="80" as="geometry">
            <mxRectangle x="130" y="1310" width="140" height="30" as="alternateBounds" />
          </mxGeometry>
        </mxCell>
        <mxCell id="hyZtjgiOcXkNJ2vdgt9V-96" value="&lt;div&gt;Main note : Waiting for Pickup&lt;br&gt;&lt;/div&gt;" style="text;html=1;align=center;verticalAlign=middle;resizable=0;points=[];autosize=1;strokeColor=none;fillColor=none;" vertex="1" parent="hyZtjgiOcXkNJ2vdgt9V-95">
          <mxGeometry x="6" y="29" width="180" height="30" as="geometry" />
        </mxCell>
        <mxCell id="hyZtjgiOcXkNJ2vdgt9V-97" value="My Job (Driver)" style="swimlane;" vertex="1" parent="1">
          <mxGeometry x="328" y="660" width="270" height="94" as="geometry" />
        </mxCell>
        <mxCell id="hyZtjgiOcXkNJ2vdgt9V-98" value="&lt;div&gt;Main note: I Picked Up (Button)&lt;/div&gt;&lt;div&gt;&lt;br&gt;&lt;/div&gt;" style="text;html=1;align=center;verticalAlign=middle;resizable=0;points=[];autosize=1;strokeColor=none;fillColor=none;" vertex="1" parent="hyZtjgiOcXkNJ2vdgt9V-97">
          <mxGeometry x="-5" y="33" width="190" height="40" as="geometry" />
        </mxCell>
        <mxCell id="hyZtjgiOcXkNJ2vdgt9V-99" value="Sub note : Pickup time Start at [time]." style="text;html=1;align=center;verticalAlign=middle;resizable=0;points=[];autosize=1;strokeColor=none;fillColor=none;" vertex="1" parent="hyZtjgiOcXkNJ2vdgt9V-97">
          <mxGeometry y="58" width="220" height="30" as="geometry" />
        </mxCell>
        <mxCell id="hyZtjgiOcXkNJ2vdgt9V-100" value="" style="endArrow=classic;html=1;rounded=0;entryX=1;entryY=0.5;entryDx=0;entryDy=0;" edge="1" parent="1">
          <mxGeometry relative="1" as="geometry">
            <mxPoint x="640" y="1360" as="sourcePoint" />
            <mxPoint x="600" y="1267" as="targetPoint" />
            <Array as="points">
              <mxPoint x="640" y="1267" />
            </Array>
          </mxGeometry>
        </mxCell>
        <mxCell id="hyZtjgiOcXkNJ2vdgt9V-101" value="Pick up Time" style="text;html=1;strokeColor=none;fillColor=none;spacing=5;spacingTop=-20;whiteSpace=wrap;overflow=hidden;rounded=0;" vertex="1" parent="1">
          <mxGeometry x="611" y="1260" width="80" height="10" as="geometry" />
        </mxCell>
        <mxCell id="hyZtjgiOcXkNJ2vdgt9V-115" value="" style="endArrow=classic;html=1;rounded=0;exitX=0;exitY=0.5;exitDx=0;exitDy=0;startArrow=none;" edge="1" parent="1" source="hyZtjgiOcXkNJ2vdgt9V-118">
          <mxGeometry width="50" height="50" relative="1" as="geometry">
            <mxPoint x="190" y="174.5" as="sourcePoint" />
            <mxPoint x="130" y="174.5" as="targetPoint" />
          </mxGeometry>
        </mxCell>
        <mxCell id="hyZtjgiOcXkNJ2vdgt9V-12" value="&lt;div&gt;&lt;br&gt;&lt;/div&gt;&lt;div&gt;Yes&lt;br&gt;&lt;/div&gt;" style="text;html=1;strokeColor=none;fillColor=none;spacing=5;spacingTop=-20;whiteSpace=wrap;overflow=hidden;rounded=0;" vertex="1" parent="1">
          <mxGeometry x="395" y="165" width="50" height="20" as="geometry" />
        </mxCell>
        <mxCell id="hyZtjgiOcXkNJ2vdgt9V-117" value="" style="endArrow=none;html=1;rounded=0;entryX=0;entryY=0.5;entryDx=0;entryDy=0;" edge="1" parent="1" target="hyZtjgiOcXkNJ2vdgt9V-12">
          <mxGeometry width="50" height="50" relative="1" as="geometry">
            <mxPoint x="324" y="175" as="sourcePoint" />
            <mxPoint x="560" y="175" as="targetPoint" />
          </mxGeometry>
        </mxCell>
        <mxCell id="hyZtjgiOcXkNJ2vdgt9V-118" value="&lt;div&gt;&lt;br&gt;&lt;/div&gt;&lt;div&gt;No&lt;/div&gt;" style="text;html=1;strokeColor=none;fillColor=none;spacing=5;spacingTop=-20;whiteSpace=wrap;overflow=hidden;rounded=0;" vertex="1" parent="1">
          <mxGeometry x="147" y="165" width="30" height="20" as="geometry" />
        </mxCell>
        <mxCell id="hyZtjgiOcXkNJ2vdgt9V-119" value="" style="endArrow=none;html=1;rounded=0;exitX=0;exitY=0.5;exitDx=0;exitDy=0;" edge="1" parent="1" source="hyZtjgiOcXkNJ2vdgt9V-15" target="hyZtjgiOcXkNJ2vdgt9V-118">
          <mxGeometry width="50" height="50" relative="1" as="geometry">
            <mxPoint x="177" y="175" as="sourcePoint" />
            <mxPoint x="130" y="174.5" as="targetPoint" />
          </mxGeometry>
        </mxCell>
        <mxCell id="hyZtjgiOcXkNJ2vdgt9V-120" value="" style="endArrow=classic;html=1;rounded=0;entryX=0;entryY=0.5;entryDx=0;entryDy=0;exitX=0.5;exitY=0.083;exitDx=0;exitDy=0;exitPerimeter=0;" edge="1" parent="1" source="hyZtjgiOcXkNJ2vdgt9V-22" target="hyZtjgiOcXkNJ2vdgt9V-2">
          <mxGeometry relative="1" as="geometry">
            <mxPoint x="70" y="140" as="sourcePoint" />
            <mxPoint x="130" y="110" as="targetPoint" />
            <Array as="points">
              <mxPoint x="70" y="50" />
            </Array>
          </mxGeometry>
        </mxCell>
        <mxCell id="hyZtjgiOcXkNJ2vdgt9V-122" value="" style="endArrow=classic;html=1;rounded=0;" edge="1" parent="1">
          <mxGeometry relative="1" as="geometry">
            <mxPoint x="461" y="1280" as="sourcePoint" />
            <mxPoint x="641" y="1650" as="targetPoint" />
            <Array as="points">
              <mxPoint x="465" y="1565" />
              <mxPoint x="641" y="1565" />
            </Array>
          </mxGeometry>
        </mxCell>
        <mxCell id="hyZtjgiOcXkNJ2vdgt9V-123" value="On I Delivered click" style="edgeLabel;resizable=0;html=1;align=center;verticalAlign=middle;" connectable="0" vertex="1" parent="hyZtjgiOcXkNJ2vdgt9V-122">
          <mxGeometry relative="1" as="geometry">
            <mxPoint y="-211" as="offset" />
          </mxGeometry>
        </mxCell>
        <mxCell id="hyZtjgiOcXkNJ2vdgt9V-125" value="&#xa;Customer &amp; Receiver get SMS&#xa; " style="swimlane;" vertex="1" parent="1">
          <mxGeometry x="518" y="1650" width="244" height="106" as="geometry" />
        </mxCell>
        <mxCell id="hyZtjgiOcXkNJ2vdgt9V-128" value="&lt;div&gt;Delivery was not Done.&lt;br&gt;&lt;/div&gt;" style="whiteSpace=wrap;html=1;" vertex="1" parent="hyZtjgiOcXkNJ2vdgt9V-125">
          <mxGeometry x="128" y="46" width="110" height="50" as="geometry" />
        </mxCell>
        <mxCell id="hyZtjgiOcXkNJ2vdgt9V-130" value="&lt;div&gt;Delivery was Competed.&lt;br&gt;&lt;/div&gt;" style="whiteSpace=wrap;html=1;" vertex="1" parent="hyZtjgiOcXkNJ2vdgt9V-125">
          <mxGeometry x="8" y="47" width="110" height="50" as="geometry" />
        </mxCell>
        <mxCell id="hyZtjgiOcXkNJ2vdgt9V-162" value="" style="endArrow=none;html=1;rounded=0;" edge="1" parent="hyZtjgiOcXkNJ2vdgt9V-125">
          <mxGeometry width="50" height="50" relative="1" as="geometry">
            <mxPoint x="224" y="160" as="sourcePoint" />
            <mxPoint x="224" y="96" as="targetPoint" />
          </mxGeometry>
        </mxCell>
        <mxCell id="hyZtjgiOcXkNJ2vdgt9V-131" value="" style="endArrow=none;html=1;rounded=0;" edge="1" parent="1">
          <mxGeometry width="50" height="50" relative="1" as="geometry">
            <mxPoint x="90" y="1564" as="sourcePoint" />
            <mxPoint x="470" y="1564" as="targetPoint" />
          </mxGeometry>
        </mxCell>
        <mxCell id="hyZtjgiOcXkNJ2vdgt9V-132" value="My Request (Customer)" style="swimlane;" vertex="1" parent="1">
          <mxGeometry x="-20" y="1654" width="290" height="106" as="geometry">
            <mxRectangle x="130" y="1310" width="140" height="30" as="alternateBounds" />
          </mxGeometry>
        </mxCell>
        <mxCell id="hyZtjgiOcXkNJ2vdgt9V-133" value="&lt;div&gt;Main note : Approve Delivery (Button)&lt;/div&gt;&lt;div&gt;&amp;nbsp;&amp;nbsp;&amp;nbsp; Denied (Button)&lt;br&gt;&lt;/div&gt;" style="text;html=1;align=center;verticalAlign=middle;resizable=0;points=[];autosize=1;strokeColor=none;fillColor=none;" vertex="1" parent="hyZtjgiOcXkNJ2vdgt9V-132">
          <mxGeometry y="25" width="220" height="40" as="geometry" />
        </mxCell>
        <mxCell id="hyZtjgiOcXkNJ2vdgt9V-134" value="My Job  (Driver)" style="swimlane;" vertex="1" parent="1">
          <mxGeometry x="286" y="1650" width="224" height="110" as="geometry" />
        </mxCell>
        <mxCell id="hyZtjgiOcXkNJ2vdgt9V-135" value="Only show status name in main note." style="text;html=1;align=center;verticalAlign=middle;resizable=0;points=[];autosize=1;strokeColor=none;fillColor=none;" vertex="1" parent="hyZtjgiOcXkNJ2vdgt9V-134">
          <mxGeometry x="-4" y="36" width="230" height="30" as="geometry" />
        </mxCell>
        <mxCell id="hyZtjgiOcXkNJ2vdgt9V-138" value="" style="endArrow=classic;html=1;rounded=0;entryX=0.373;entryY=-0.027;entryDx=0;entryDy=0;entryPerimeter=0;" edge="1" parent="1" target="hyZtjgiOcXkNJ2vdgt9V-132">
          <mxGeometry relative="1" as="geometry">
            <mxPoint x="90" y="1564" as="sourcePoint" />
            <mxPoint x="160" y="1604" as="targetPoint" />
          </mxGeometry>
        </mxCell>
        <mxCell id="hyZtjgiOcXkNJ2vdgt9V-140" value="" style="endArrow=classic;html=1;rounded=0;entryX=0.455;entryY=-0.025;entryDx=0;entryDy=0;entryPerimeter=0;" edge="1" parent="1">
          <mxGeometry relative="1" as="geometry">
            <mxPoint x="370.5" y="1564" as="sourcePoint" />
            <mxPoint x="370.5999999999999" y="1652" as="targetPoint" />
          </mxGeometry>
        </mxCell>
        <mxCell id="hyZtjgiOcXkNJ2vdgt9V-142" value="Status : Waiting for Approval" style="rounded=0;whiteSpace=wrap;html=1;" vertex="1" parent="1">
          <mxGeometry x="280" y="1460" width="390" height="60" as="geometry" />
        </mxCell>
        <mxCell id="hyZtjgiOcXkNJ2vdgt9V-143" value="&lt;div&gt;Sub note :Driver Reported delivery please approve.&lt;/div&gt;" style="text;html=1;align=center;verticalAlign=middle;resizable=0;points=[];autosize=1;strokeColor=none;fillColor=none;" vertex="1" parent="1">
          <mxGeometry x="-20" y="1721" width="300" height="30" as="geometry" />
        </mxCell>
        <mxCell id="hyZtjgiOcXkNJ2vdgt9V-145" value="My Request (Customer)" style="swimlane;" vertex="1" parent="1">
          <mxGeometry x="1" y="2018" width="264" height="100" as="geometry">
            <mxRectangle x="130" y="1310" width="140" height="30" as="alternateBounds" />
          </mxGeometry>
        </mxCell>
        <mxCell id="hyZtjgiOcXkNJ2vdgt9V-146" value="&lt;div&gt;Main note : Payment Instruction (Button)&lt;br&gt;&lt;/div&gt;" style="text;html=1;align=center;verticalAlign=middle;resizable=0;points=[];autosize=1;strokeColor=none;fillColor=none;" vertex="1" parent="hyZtjgiOcXkNJ2vdgt9V-145">
          <mxGeometry x="1" y="30" width="240" height="30" as="geometry" />
        </mxCell>
        <mxCell id="hyZtjgiOcXkNJ2vdgt9V-147" value="Sub note : Please pay the driver." style="text;html=1;align=center;verticalAlign=middle;resizable=0;points=[];autosize=1;strokeColor=none;fillColor=none;" vertex="1" parent="hyZtjgiOcXkNJ2vdgt9V-145">
          <mxGeometry x="-1" y="60" width="200" height="30" as="geometry" />
        </mxCell>
        <mxCell id="hyZtjgiOcXkNJ2vdgt9V-148" value="My Job  (Driver)" style="swimlane;" vertex="1" parent="1">
          <mxGeometry x="281" y="2018" width="237" height="100" as="geometry" />
        </mxCell>
        <mxCell id="hyZtjgiOcXkNJ2vdgt9V-149" value="Main note : Payment Received (Button)" style="text;html=1;align=center;verticalAlign=middle;resizable=0;points=[];autosize=1;strokeColor=none;fillColor=none;" vertex="1" parent="hyZtjgiOcXkNJ2vdgt9V-148">
          <mxGeometry x="-4" y="36" width="230" height="30" as="geometry" />
        </mxCell>
        <mxCell id="hyZtjgiOcXkNJ2vdgt9V-150" value="Sub note : Approve payment when done." style="text;html=1;align=center;verticalAlign=middle;resizable=0;points=[];autosize=1;strokeColor=none;fillColor=none;" vertex="1" parent="hyZtjgiOcXkNJ2vdgt9V-148">
          <mxGeometry x="-4" y="65" width="240" height="30" as="geometry" />
        </mxCell>
        <mxCell id="hyZtjgiOcXkNJ2vdgt9V-151" value="Status : Waiting for Payment" style="rounded=0;whiteSpace=wrap;html=1;" vertex="1" parent="1">
          <mxGeometry x="170" y="1910" width="200" height="60" as="geometry" />
        </mxCell>
        <mxCell id="hyZtjgiOcXkNJ2vdgt9V-155" value="" style="endArrow=classic;html=1;rounded=0;entryX=0.41;entryY=-0.05;entryDx=0;entryDy=0;entryPerimeter=0;" edge="1" parent="1" target="hyZtjgiOcXkNJ2vdgt9V-151">
          <mxGeometry relative="1" as="geometry">
            <mxPoint x="80" y="1760" as="sourcePoint" />
            <mxPoint x="80" y="1880" as="targetPoint" />
            <Array as="points">
              <mxPoint x="80" y="1860" />
              <mxPoint x="250" y="1860" />
            </Array>
          </mxGeometry>
        </mxCell>
        <mxCell id="hyZtjgiOcXkNJ2vdgt9V-156" value="Click on Approve Delivery" style="edgeLabel;resizable=0;html=1;align=center;verticalAlign=middle;" connectable="0" vertex="1" parent="hyZtjgiOcXkNJ2vdgt9V-155">
          <mxGeometry relative="1" as="geometry">
            <mxPoint x="23" as="offset" />
          </mxGeometry>
        </mxCell>
        <mxCell id="hyZtjgiOcXkNJ2vdgt9V-157" value="" style="endArrow=classic;html=1;rounded=0;" edge="1" parent="1">
          <mxGeometry relative="1" as="geometry">
            <mxPoint x="167" y="1760" as="sourcePoint" />
            <mxPoint x="700" y="2620" as="targetPoint" />
            <Array as="points">
              <mxPoint x="167" y="1812" />
              <mxPoint x="700" y="1812" />
            </Array>
          </mxGeometry>
        </mxCell>
        <mxCell id="hyZtjgiOcXkNJ2vdgt9V-158" value="Click on Denied" style="edgeLabel;resizable=0;html=1;align=center;verticalAlign=middle;" connectable="0" vertex="1" parent="hyZtjgiOcXkNJ2vdgt9V-157">
          <mxGeometry relative="1" as="geometry">
            <mxPoint x="242" y="-12" as="offset" />
          </mxGeometry>
        </mxCell>
        <mxCell id="hyZtjgiOcXkNJ2vdgt9V-159" value="" style="endArrow=classic;html=1;rounded=0;exitX=0.5;exitY=1;exitDx=0;exitDy=0;entryX=0.4;entryY=-0.05;entryDx=0;entryDy=0;entryPerimeter=0;" edge="1" parent="1" source="hyZtjgiOcXkNJ2vdgt9V-130" target="hyZtjgiOcXkNJ2vdgt9V-151">
          <mxGeometry relative="1" as="geometry">
            <mxPoint x="490" y="1900" as="sourcePoint" />
            <mxPoint x="301" y="1900" as="targetPoint" />
            <Array as="points">
              <mxPoint x="581" y="1860" />
              <mxPoint x="250" y="1860" />
            </Array>
          </mxGeometry>
        </mxCell>
        <mxCell id="hyZtjgiOcXkNJ2vdgt9V-163" value="" style="endArrow=none;html=1;rounded=0;" edge="1" parent="1">
          <mxGeometry width="50" height="50" relative="1" as="geometry">
            <mxPoint x="700" y="1812" as="sourcePoint" />
            <mxPoint x="741" y="1810" as="targetPoint" />
          </mxGeometry>
        </mxCell>
        <mxCell id="hyZtjgiOcXkNJ2vdgt9V-164" value="" style="endArrow=classic;html=1;rounded=0;exitX=0.325;exitY=1.033;exitDx=0;exitDy=0;exitPerimeter=0;entryX=0.5;entryY=0;entryDx=0;entryDy=0;" edge="1" parent="1" source="hyZtjgiOcXkNJ2vdgt9V-151" target="hyZtjgiOcXkNJ2vdgt9V-145">
          <mxGeometry relative="1" as="geometry">
            <mxPoint x="330" y="2060" as="sourcePoint" />
            <mxPoint x="430" y="2060" as="targetPoint" />
            <Array as="points">
              <mxPoint x="235" y="1990" />
              <mxPoint x="133" y="1990" />
            </Array>
          </mxGeometry>
        </mxCell>
        <mxCell id="hyZtjgiOcXkNJ2vdgt9V-166" value="" style="endArrow=none;html=1;rounded=0;" edge="1" parent="1">
          <mxGeometry width="50" height="50" relative="1" as="geometry">
            <mxPoint x="232" y="1990" as="sourcePoint" />
            <mxPoint x="392" y="1990" as="targetPoint" />
          </mxGeometry>
        </mxCell>
        <mxCell id="hyZtjgiOcXkNJ2vdgt9V-168" value="" style="endArrow=classic;html=1;rounded=0;entryX=0.46;entryY=0.01;entryDx=0;entryDy=0;entryPerimeter=0;" edge="1" parent="1" target="hyZtjgiOcXkNJ2vdgt9V-148">
          <mxGeometry width="50" height="50" relative="1" as="geometry">
            <mxPoint x="391" y="1989" as="sourcePoint" />
            <mxPoint x="391" y="2062" as="targetPoint" />
          </mxGeometry>
        </mxCell>
        <mxCell id="hyZtjgiOcXkNJ2vdgt9V-169" value="" style="endArrow=classic;html=1;rounded=0;" edge="1" parent="1">
          <mxGeometry width="50" height="50" relative="1" as="geometry">
            <mxPoint x="370" y="2117" as="sourcePoint" />
            <mxPoint x="370" y="2177" as="targetPoint" />
          </mxGeometry>
        </mxCell>
        <mxCell id="hyZtjgiOcXkNJ2vdgt9V-170" value="Status : Completed" style="rounded=0;whiteSpace=wrap;html=1;" vertex="1" parent="1">
          <mxGeometry x="310" y="2176" width="120" height="60" as="geometry" />
        </mxCell>
        <mxCell id="hyZtjgiOcXkNJ2vdgt9V-171" value="" style="endArrow=classic;html=1;rounded=0;" edge="1" parent="1">
          <mxGeometry width="50" height="50" relative="1" as="geometry">
            <mxPoint x="117" y="2117" as="sourcePoint" />
            <mxPoint x="117" y="2177" as="targetPoint" />
          </mxGeometry>
        </mxCell>
        <mxCell id="hyZtjgiOcXkNJ2vdgt9V-172" value="Open Link" style="rounded=0;whiteSpace=wrap;html=1;" vertex="1" parent="1">
          <mxGeometry x="57" y="2176" width="120" height="60" as="geometry" />
        </mxCell>
        <mxCell id="hyZtjgiOcXkNJ2vdgt9V-173" value="&lt;div&gt;&lt;br&gt;&lt;/div&gt;&lt;div&gt;On Payment&lt;/div&gt;&lt;div&gt;Instruction Click&lt;/div&gt;" style="text;html=1;strokeColor=none;fillColor=none;spacing=5;spacingTop=-20;whiteSpace=wrap;overflow=hidden;rounded=0;" vertex="1" parent="1">
          <mxGeometry x="10" y="2120" width="130" height="30" as="geometry" />
        </mxCell>
        <mxCell id="hyZtjgiOcXkNJ2vdgt9V-174" value="&lt;div&gt;&lt;br&gt;&lt;/div&gt;&lt;div&gt;On Payment&lt;/div&gt;&lt;div&gt;Received Click&lt;/div&gt;" style="text;html=1;strokeColor=none;fillColor=none;spacing=5;spacingTop=-20;whiteSpace=wrap;overflow=hidden;rounded=0;" vertex="1" parent="1">
          <mxGeometry x="380" y="2120" width="130" height="30" as="geometry" />
        </mxCell>
        <mxCell id="hyZtjgiOcXkNJ2vdgt9V-175" value="&lt;div&gt;&lt;br&gt;&lt;/div&gt;&lt;div&gt;Click on Denied&lt;br&gt;&lt;/div&gt;" style="text;html=1;strokeColor=none;fillColor=none;spacing=5;spacingTop=-20;whiteSpace=wrap;overflow=hidden;rounded=0;" vertex="1" parent="1">
          <mxGeometry x="426" y="1790" width="100" height="20" as="geometry" />
        </mxCell>
        <mxCell id="hyZtjgiOcXkNJ2vdgt9V-176" value="My Request (Customer)/My Job (Driver)" style="swimlane;" vertex="1" parent="1">
          <mxGeometry x="57" y="2410" width="264" height="70" as="geometry">
            <mxRectangle x="130" y="1310" width="140" height="30" as="alternateBounds" />
          </mxGeometry>
        </mxCell>
        <mxCell id="hyZtjgiOcXkNJ2vdgt9V-178" value="Main note : Leave Feedback (Button)" style="text;html=1;align=center;verticalAlign=middle;resizable=0;points=[];autosize=1;strokeColor=none;fillColor=none;" vertex="1" parent="hyZtjgiOcXkNJ2vdgt9V-176">
          <mxGeometry x="-1" y="29" width="220" height="30" as="geometry" />
        </mxCell>
        <mxCell id="hyZtjgiOcXkNJ2vdgt9V-179" value="My Request (Customer)/My Job (Driver)" style="swimlane;" vertex="1" parent="1">
          <mxGeometry x="390" y="2400" width="264" height="80" as="geometry">
            <mxRectangle x="130" y="1310" width="140" height="30" as="alternateBounds" />
          </mxGeometry>
        </mxCell>
        <mxCell id="hyZtjgiOcXkNJ2vdgt9V-180" value="&lt;div&gt;Main note : Completed and paid.&lt;/div&gt;&lt;div&gt;&amp;nbsp;&amp;nbsp;&amp;nbsp;&amp;nbsp;&amp;nbsp;&amp;nbsp; The Request/ Job will move to close.&lt;br&gt;&lt;/div&gt;" style="text;html=1;align=center;verticalAlign=middle;resizable=0;points=[];autosize=1;strokeColor=none;fillColor=none;" vertex="1" parent="hyZtjgiOcXkNJ2vdgt9V-179">
          <mxGeometry x="-5" y="29" width="240" height="40" as="geometry" />
        </mxCell>
        <mxCell id="hyZtjgiOcXkNJ2vdgt9V-184" value="&lt;div&gt;Check feedback &lt;br&gt;&lt;/div&gt;&lt;div&gt;for&lt;/div&gt;&lt;div&gt;Driver &amp;amp; Customer&lt;br&gt;&lt;/div&gt;" style="rhombus;whiteSpace=wrap;html=1;" vertex="1" parent="1">
          <mxGeometry x="284" y="2260" width="150" height="100" as="geometry" />
        </mxCell>
        <mxCell id="hyZtjgiOcXkNJ2vdgt9V-186" value="" style="endArrow=none;html=1;rounded=0;entryX=0.408;entryY=0.983;entryDx=0;entryDy=0;entryPerimeter=0;exitX=0.5;exitY=0;exitDx=0;exitDy=0;" edge="1" parent="1" source="hyZtjgiOcXkNJ2vdgt9V-184" target="hyZtjgiOcXkNJ2vdgt9V-170">
          <mxGeometry width="50" height="50" relative="1" as="geometry">
            <mxPoint x="350" y="2380" as="sourcePoint" />
            <mxPoint x="400" y="2330" as="targetPoint" />
          </mxGeometry>
        </mxCell>
        <mxCell id="hyZtjgiOcXkNJ2vdgt9V-187" value="" style="endArrow=classic;html=1;rounded=0;entryX=0.5;entryY=0;entryDx=0;entryDy=0;" edge="1" parent="1">
          <mxGeometry relative="1" as="geometry">
            <mxPoint x="432" y="2309.5" as="sourcePoint" />
            <mxPoint x="520" y="2400" as="targetPoint" />
            <Array as="points">
              <mxPoint x="518" y="2310" />
              <mxPoint x="520" y="2350" />
            </Array>
          </mxGeometry>
        </mxCell>
        <mxCell id="hyZtjgiOcXkNJ2vdgt9V-188" value="If Feedback is there" style="edgeLabel;resizable=0;html=1;align=center;verticalAlign=middle;" connectable="0" vertex="1" parent="hyZtjgiOcXkNJ2vdgt9V-187">
          <mxGeometry relative="1" as="geometry">
            <mxPoint y="38" as="offset" />
          </mxGeometry>
        </mxCell>
        <mxCell id="hyZtjgiOcXkNJ2vdgt9V-189" value="" style="endArrow=classic;html=1;rounded=0;entryX=0.436;entryY=-0.057;entryDx=0;entryDy=0;entryPerimeter=0;exitX=0;exitY=0.5;exitDx=0;exitDy=0;" edge="1" parent="1">
          <mxGeometry relative="1" as="geometry">
            <mxPoint x="287" y="2310.99" as="sourcePoint" />
            <mxPoint x="175.10400000000004" y="2407" as="targetPoint" />
            <Array as="points">
              <mxPoint x="173" y="2310.99" />
            </Array>
          </mxGeometry>
        </mxCell>
        <mxCell id="hyZtjgiOcXkNJ2vdgt9V-190" value="&lt;div&gt;If Feedback is not&lt;/div&gt;&lt;div&gt;&amp;nbsp;there&lt;/div&gt;" style="edgeLabel;resizable=0;html=1;align=center;verticalAlign=middle;" connectable="0" vertex="1" parent="hyZtjgiOcXkNJ2vdgt9V-189">
          <mxGeometry relative="1" as="geometry">
            <mxPoint x="-12" y="49" as="offset" />
          </mxGeometry>
        </mxCell>
        <mxCell id="hyZtjgiOcXkNJ2vdgt9V-191" value="" style="endArrow=classic;html=1;rounded=0;entryX=0.423;entryY=0.017;entryDx=0;entryDy=0;entryPerimeter=0;" edge="1" parent="1" target="hyZtjgiOcXkNJ2vdgt9V-192">
          <mxGeometry width="50" height="50" relative="1" as="geometry">
            <mxPoint x="170" y="2480" as="sourcePoint" />
            <mxPoint x="170" y="2540" as="targetPoint" />
          </mxGeometry>
        </mxCell>
        <mxCell id="hyZtjgiOcXkNJ2vdgt9V-192" value="Open Feedback screen for that Customer or Driver." style="rounded=0;whiteSpace=wrap;html=1;" vertex="1" parent="1">
          <mxGeometry x="60" y="2510" width="260" height="60" as="geometry" />
        </mxCell>
        <mxCell id="hyZtjgiOcXkNJ2vdgt9V-193" value="" style="endArrow=classic;html=1;rounded=0;entryX=0.5;entryY=1;entryDx=0;entryDy=0;" edge="1" parent="1" target="hyZtjgiOcXkNJ2vdgt9V-179">
          <mxGeometry relative="1" as="geometry">
            <mxPoint x="320" y="2539.5" as="sourcePoint" />
            <mxPoint x="420" y="2539.5" as="targetPoint" />
            <Array as="points">
              <mxPoint x="522" y="2540" />
            </Array>
          </mxGeometry>
        </mxCell>
        <mxCell id="hyZtjgiOcXkNJ2vdgt9V-194" value="&lt;div&gt;If customer and&lt;/div&gt;&lt;div&gt;&amp;nbsp;Driver fill feedback&lt;/div&gt;" style="edgeLabel;resizable=0;html=1;align=center;verticalAlign=middle;" connectable="0" vertex="1" parent="hyZtjgiOcXkNJ2vdgt9V-193">
          <mxGeometry relative="1" as="geometry">
            <mxPoint x="-25" as="offset" />
          </mxGeometry>
        </mxCell>
      </root>
    </mxGraphModel>
  </diagram>
</mxfile>
